<svg t="1606723528442" class="icon" viewBox="0 0 1024 1024" version="1.1" xmlns="http://www.w3.org/2000/svg" p-id="2413" width="200" height="200"><path d="M512 0C228.430769 0 0 228.430769 0 512s228.430769 512 512 512 512-228.430769 512-512S795.569231 0 512 0z m208.738462 673.476923c11.815385 11.815385 11.815385 31.507692 0 39.384615-11.815385 11.815385-31.507692 11.815385-39.384616 0L519.876923 551.384615l-161.476923 161.476923c-11.815385 11.815385-31.507692 11.815385-39.384615 0-11.815385-11.815385-11.815385-31.507692 0-39.384615l161.476923-161.476923-161.476923-161.476923c-7.876923-11.815385-7.876923-27.569231 0-39.384615 11.815385-11.815385 31.507692-11.815385 39.384615 0l161.476923 161.476923 161.476923-161.476923c11.815385-11.815385 31.507692-11.815385 39.384616 0 11.815385 11.815385 11.815385 31.507692 0 39.384615L559.261538 512l161.476924 161.476923z" p-id="2414"></path></svg>
